<?xml version="1.0" encoding="utf-8"?>
<!-- Generator: Adobe Illustrator 27.4.1, SVG Export Plug-In . SVG Version: 6.00 Build 0)  -->
<svg version="1.1" id="Layer_1" xmlns="http://www.w3.org/2000/svg" xmlns:xlink="http://www.w3.org/1999/xlink" x="0px" y="0px"
	 viewBox="0 0 841.89 595.28" style="enable-background:new 0 0 841.89 595.28;" xml:space="preserve">
<g>
	<path d="M731.25,201.03c-0.43-0.67-0.11-1.47-0.41-2.18c-0.03,2.44-0.3,4.86-0.47,7.28c-0.4,5.52-1.22,11-1.88,16.49
		c-0.65,5.41-1.35,10.82-1.88,16.24c-0.77,7.75-1.8,15.45-3.17,23.12c-1.03,5.77-2.02,11.53-2.2,17.44
		c-0.3,9.83-0.06,19.66-0.17,29.49c-0.05,4.67,0.03,9.33-0.02,14c-0.06,5.23,0.43,10.38,1.57,15.48c0.73,3.23-0.92,4.88-4.2,4.3
		c-5.08-0.89-10.01-2.49-15.13-3.27c-16.03-2.42-31.49-7.09-46.86-12.11c-4.99-1.63-9.73-3.97-14.79-5.38
		c-7.97-2.22-15.59-5.34-23.14-8.66c-3.34-1.47-6.94-2.02-10.48-2.79c-6.73-1.45-13.15-3.97-19.64-6.19
		c-5.69-1.95-11.01-4.75-16.54-7.05c-3.23-1.34-6.58-2.39-9.62-4.17c-1.16-0.68-2.25-1.44-3.09-2.5c-1.69-2.17-0.8-4.68,1.86-5.4
		c1.16-0.31,2.32-0.27,3.48-0.15c3.36,0.37,6.36-0.42,9.27-2.18c15.52-9.35,31.09-18.62,46.66-27.89c0.82-0.49,0.96-0.94,0.62-1.8
		c-1.02-2.58-2.31-4.99-4.18-7.06c-2.68-2.97-5.24-6.03-7.59-9.28c-2.84-3.93-6.5-7.14-9.73-10.73c-3.6-3.99-7.3-7.89-11.25-11.54
		c-4.91-4.52-10.54-7.9-16.81-10.1c-6.24-2.19-12.16-5.02-18.01-8.04c-6.25-3.23-12.87-5.43-19.61-7.37
		c-8.36-2.41-16.62-5.17-25.02-7.44c-11.66-3.15-23.47-5.65-35.46-7.16c-5.28-0.67-10.59-1.1-15.93-1.09
		c-8.46,0.03-16.92-0.09-25.37,0.03c-8.7,0.12-17.37,0.78-26.01,1.88c-10.11,1.29-20.21,2.68-30.3,4.12
		c-5.23,0.74-10.45,1.59-15.68,2.33c-3.01,0.43-6.02,0.77-9.04,1.12c-2.16,0.25-4.26,0.79-6.31,1.47c-4.25,1.42-8.58,2.35-13.06,2.6
		c-4.05,0.22-7.96,1.28-11.9,2.17c-7.18,1.64-14.43,2.95-21.58,4.76c-8.28,2.1-16.42,4.63-24.43,7.61
		c-4.09,1.52-8.32,2.68-12.49,3.98c-5.85,1.82-11.41,4.47-17.25,6.27c-5.94,1.83-11.46,4.45-16.87,7.44
		c-6.53,3.6-13.33,6.69-20.05,9.91c-7.46,3.58-14.39,8.01-21.29,12.54c-4.37,2.87-8.78,5.59-12.12,9.72
		c-2.09,2.6-4.07,5.27-5.86,8.09c-4.65,7.36-9.32,14.71-13.15,22.55c-2.98,6.11-4.61,12.56-5.35,19.27
		c-1.37,12.4,0.25,24.57,2.84,36.68c2.18,10.19,5.26,20.02,10.19,29.27c6.06,11.38,13.18,21.99,21.81,31.59
		c4.93,5.48,9.24,11.48,13.99,17.13c7.5,8.93,16.89,14.98,27.84,18.74c5.68,1.95,11.42,3.64,17.4,4.43
		c6.26,0.82,12.53,0.81,18.82,0.46c6.07-0.33,12.1-1.06,18.13-1.77c11.07-1.3,21.75-4.01,31.97-8.52c5.65-2.49,10.9-5.56,15.64-9.51
		c6.97-5.82,14.27-11.23,21.37-16.89c2.99-2.38,5.58-5.25,8.79-7.39c2.26-1.5,4.62-2.82,7.04-4.03c1.13-0.56,2.16-0.55,3.13,0.27
		c0.97,0.83,1.13,1.86,0.78,3.06c-0.69,2.36-1.96,4.41-3.43,6.34c-4.84,6.37-10.06,12.4-15.75,18.07
		c-6.05,6.04-12.24,11.9-18.72,17.47c-5.8,4.98-12.43,8.64-18.99,12.45c-8.59,5-17.4,9.5-26.93,12.45
		c-8.85,2.74-17.82,4.89-27.09,5.6c-3.36,0.26-6.72,0.49-10.08,0.73c-0.24,0.02-19.35,0.74-24.49-0.06
		c-7.52-1.07-14.88-2.78-22.05-5.29c-6.47-2.27-12.53-5.42-18.53-8.67c-10.06-5.45-19.59-11.66-28.19-19.27
		c-13.19-11.66-22.49-26.04-29.36-42.05c-4.32-10.07-7.35-20.62-10.01-31.24c-1.82-7.26-3.37-14.6-3.33-22.16
		c0-0.86-0.17-19.35-0.17-19.79c0.01-2.34,0.24-4.66,0.55-6.97c1.35-10.01,3.65-19.81,6.81-29.4c3.18-9.62,7.13-18.93,11.23-28.19
		c3.85-8.71,8.76-16.74,14.83-24.07c5.72-6.9,11.72-13.55,17.91-20.02c8.1-8.47,16.77-16.32,26.16-23.36
		c13.63-10.23,27.75-19.6,43.4-26.52c15.69-6.94,31.79-12.67,48.39-16.97c19.16-4.96,38.56-8.7,58.12-11.67
		c11-1.67,22.06-2.61,33.16-3.14c5.03-0.24,10.07-0.33,15.11-0.27c7.21,0.08,14.4-0.41,21.61-0.32c0.42,0.01,49.31,0.07,51.75,0.21
		c7.93,0.48,15.84,1.18,23.74,2.04c8.11,0.88,16.18,1.96,24.21,3.44c15.18,2.8,30.02,6.85,44.54,12.07
		c22.66,8.15,44.19,18.57,64.34,31.83c9.57,6.3,18.78,13.11,28.47,19.23c1.76,1.11,3.44,2.34,5,3.73c2.33,2.08,4.47,4.36,6.94,6.29
		c3.9,3.05,7.94,5.95,10.96,9.97c1.23,1.63,2.56,3.18,3.79,4.81c0.59,0.78,1.09,0.89,1.96,0.37c10.18-6.11,20.38-12.17,30.57-18.26
		c7.08-4.23,14.15-8.47,21.24-12.68c1.55-0.92,2.53-0.72,3.72,0.65c0.23,0.26,0.39,0.55,0.8,0.4
		C731.25,195.36,731.25,198.19,731.25,201.03z"/>
</g>
</svg>
